<?xml version="1.0" encoding="utf-8"?>
<!-- Generator: Adobe Illustrator 27.6.0, SVG Export Plug-In . SVG Version: 6.00 Build 0)  -->
<svg version="1.1" id="Layer_1" xmlns="http://www.w3.org/2000/svg" xmlns:xlink="http://www.w3.org/1999/xlink" x="0px" y="0px"
	 viewBox="0 0 200.3379 194.7056" style="enable-background:new 0 0 200.3379 194.7056;" xml:space="preserve">
<style type="text/css">
	.st0{fill:#FFFFFF;}
	.st1{fill:none;stroke:#000000;stroke-width:0.8;stroke-linejoin:round;stroke-miterlimit:10;}
	
		.st2{clip-path:url(#SVGID_00000057117180964732283250000003695879772569722793_);fill:none;stroke:#000000;stroke-width:1.5;stroke-linejoin:round;stroke-miterlimit:10;stroke-dasharray:1.5,2.475;}
	
		.st3{clip-path:url(#SVGID_00000057117180964732283250000003695879772569722793_);fill:none;stroke:#000000;stroke-width:1.5;stroke-linecap:square;stroke-linejoin:round;stroke-miterlimit:10;}
	
		.st4{clip-path:url(#SVGID_00000057117180964732283250000003695879772569722793_);fill:none;stroke:#ED2224;stroke-width:1.5;stroke-linejoin:round;stroke-miterlimit:10;stroke-dasharray:1.5,2.475;}
	
		.st5{clip-path:url(#SVGID_00000057117180964732283250000003695879772569722793_);fill:none;stroke:#ED2224;stroke-width:1.5;stroke-linecap:square;stroke-linejoin:round;stroke-miterlimit:10;}
	.st6{fill:none;stroke:#000000;stroke-width:0.8;stroke-linecap:square;stroke-miterlimit:10;}
	.st7{fill:none;stroke:#000000;stroke-width:1.5;stroke-linecap:square;stroke-linejoin:round;stroke-miterlimit:10;}
	.st8{fill:none;stroke:#000000;stroke-width:1.5;stroke-linejoin:round;stroke-miterlimit:10;stroke-dasharray:1.5,2.475;}
	.st9{fill:none;stroke:#000000;stroke-linejoin:round;stroke-miterlimit:10;}
	.st10{fill:#ED2224;}
	.st11{fill:none;stroke:#ED2224;stroke-linejoin:round;stroke-miterlimit:10;}
</style>
<rect x="47.1216" y="1.1115" class="st0" width="149.377" height="160.7"/>
<line x1="53.9113" y1="161.8116" x2="53.9113" y2="165.3116"/>
<line class="st1" x1="53.9113" y1="161.8116" x2="53.9113" y2="165.3116"/>
<g>
	<path d="M53.9102,168.9829c0.8169,0,1.4414,0.3232,1.8726,0.9688c0.4312,0.6465,0.647,1.585,0.647,2.8154
		c0,1.2275-0.2158,2.1641-0.647,2.8096c-0.4312,0.6465-1.0557,0.9697-1.8726,0.9697s-1.4414-0.3232-1.8726-0.9697
		c-0.4312-0.6455-0.647-1.582-0.647-2.8096c0-1.2305,0.2158-2.1689,0.647-2.8154
		C52.4688,169.3062,53.0933,168.9829,53.9102,168.9829z M53.9102,169.7642c-0.5078,0-0.8896,0.25-1.145,0.75
		c-0.2554,0.499-0.3833,1.25-0.3833,2.2529c0,0.999,0.1279,1.749,0.3833,2.249c0.2554,0.499,0.6372,0.749,1.145,0.749
		c0.5112,0,0.8945-0.25,1.1499-0.749c0.2554-0.5,0.3833-1.25,0.3833-2.249c0-1.0029-0.1279-1.7539-0.3833-2.2529
		C54.8047,170.0142,54.4214,169.7642,53.9102,169.7642z"/>
</g>
<line x1="81.3451" y1="161.8116" x2="81.3451" y2="165.3116"/>
<line class="st1" x1="81.3451" y1="161.8116" x2="81.3451" y2="165.3116"/>
<g>
	<path d="M73.3271,175.5747h1.6113v-5.5615l-1.7529,0.3516v-0.8984l1.7432-0.3516h0.9863v6.46h1.6113v0.8301h-4.1992V175.5747z"/>
	<path d="M81.6279,168.9829c0.8169,0,1.4414,0.3232,1.8726,0.9688c0.4312,0.6465,0.647,1.585,0.647,2.8154
		c0,1.2275-0.2158,2.1641-0.647,2.8096c-0.4312,0.6465-1.0557,0.9697-1.8726,0.9697s-1.4414-0.3232-1.8726-0.9697
		c-0.4312-0.6455-0.647-1.582-0.647-2.8096c0-1.2305,0.2158-2.1689,0.647-2.8154C80.1865,169.3062,80.811,168.9829,81.6279,168.9829
		z M81.6279,169.7642c-0.5078,0-0.8896,0.25-1.145,0.75c-0.2554,0.499-0.3833,1.25-0.3833,2.2529c0,0.999,0.1279,1.749,0.3833,2.249
		c0.2554,0.499,0.6372,0.749,1.145,0.749c0.5112,0,0.8945-0.25,1.1499-0.749c0.2554-0.5,0.3833-1.25,0.3833-2.249
		c0-1.0029-0.1279-1.7539-0.3833-2.2529C82.5225,170.0142,82.1392,169.7642,81.6279,169.7642z"/>
	<path d="M85.7197,168.8071h0.9033v4.4873l2.6807-2.3584h1.1475l-2.9004,2.5586l3.0225,2.9102h-1.1719l-2.7783-2.6709v2.6709
		h-0.9033V168.8071z"/>
</g>
<line x1="108.7787" y1="161.8116" x2="108.7787" y2="165.3116"/>
<line class="st1" x1="108.7787" y1="161.8116" x2="108.7787" y2="165.3116"/>
<g>
	<path d="M101.4399,175.5747h3.4424v0.8301h-4.6289v-0.8301c0.3745-0.3877,0.8848-0.9072,1.5308-1.5605
		c0.646-0.6523,1.0522-1.0732,1.2183-1.2617c0.3159-0.3545,0.5361-0.6553,0.6616-0.9004c0.1255-0.2461,0.188-0.4883,0.188-0.7256
		c0-0.3877-0.1357-0.7031-0.4077-0.9473s-0.626-0.3662-1.062-0.3662c-0.3091,0-0.6357,0.0537-0.979,0.1611
		s-0.7104,0.2705-1.1011,0.4883v-0.9961c0.397-0.1592,0.7681-0.2803,1.1133-0.3613s0.6606-0.1221,0.9473-0.1221
		c0.7554,0,1.3574,0.1885,1.8066,0.5664s0.6738,0.8818,0.6738,1.5137c0,0.2998-0.0562,0.584-0.1685,0.8516
		c-0.1123,0.2695-0.3164,0.5859-0.6128,0.9502c-0.0815,0.0947-0.3403,0.3672-0.7764,0.8174
		C102.8496,174.1333,102.2344,174.7642,101.4399,175.5747z"/>
	<path d="M109.062,168.9829c0.8169,0,1.4414,0.3232,1.8726,0.9688c0.4312,0.6465,0.647,1.585,0.647,2.8154
		c0,1.2275-0.2158,2.1641-0.647,2.8096c-0.4312,0.6465-1.0557,0.9697-1.8726,0.9697s-1.4414-0.3232-1.8726-0.9697
		c-0.4312-0.6455-0.647-1.582-0.647-2.8096c0-1.2305,0.2158-2.1689,0.647-2.8154
		C107.6206,169.3062,108.2451,168.9829,109.062,168.9829z M109.062,169.7642c-0.5078,0-0.8896,0.25-1.145,0.75
		c-0.2554,0.499-0.3833,1.25-0.3833,2.2529c0,0.999,0.1279,1.749,0.3833,2.249c0.2554,0.499,0.6372,0.749,1.145,0.749
		c0.5112,0,0.8945-0.25,1.1499-0.749c0.2554-0.5,0.3833-1.25,0.3833-2.249c0-1.0029-0.1279-1.7539-0.3833-2.2529
		C109.9565,170.0142,109.5732,169.7642,109.062,169.7642z"/>
	<path d="M113.1538,168.8071h0.9033v4.4873l2.6807-2.3584h1.1475l-2.9004,2.5586l3.0225,2.9102h-1.1719l-2.7783-2.6709v2.6709
		h-0.9033V168.8071z"/>
</g>
<line x1="136.2125" y1="161.8116" x2="136.2125" y2="165.3116"/>
<line class="st1" x1="136.2125" y1="161.8116" x2="136.2125" y2="165.3116"/>
<g>
	<path d="M131.0122,172.4741c0.4722,0.1006,0.8408,0.3105,1.106,0.6299s0.3979,0.7129,0.3979,1.1816
		c0,0.7197-0.2476,1.2764-0.7422,1.6699s-1.1978,0.5908-2.1094,0.5908c-0.3062,0-0.6211-0.0303-0.9448-0.0908
		c-0.3237-0.0596-0.6582-0.1504-1.0034-0.2705v-0.9521c0.2734,0.1592,0.5728,0.2803,0.8984,0.3613s0.6655,0.1221,1.0205,0.1221
		c0.6187,0,1.0898-0.1221,1.4136-0.3662s0.4858-0.5986,0.4858-1.0645c0-0.4297-0.1504-0.7656-0.4517-1.0078
		c-0.3013-0.2432-0.7202-0.3643-1.2573-0.3643h-0.8496v-0.8105h0.8887c0.4849,0,0.856-0.0967,1.1133-0.29
		c0.2573-0.1943,0.3857-0.4736,0.3857-0.8379c0-0.374-0.1328-0.6621-0.3979-0.8613c-0.2651-0.2012-0.6455-0.3008-1.1401-0.3008
		c-0.27,0-0.5601,0.0293-0.8691,0.0879s-0.6494,0.1494-1.0205,0.2734v-0.8789c0.3745-0.1045,0.7251-0.1826,1.0522-0.2344
		s0.6357-0.0781,0.9253-0.0781c0.7485,0,1.3413,0.1699,1.7773,0.5098c0.436,0.3408,0.6543,0.8008,0.6543,1.3799
		c0,0.4033-0.1157,0.7451-0.3467,1.0225C131.7676,172.1743,131.4385,172.3667,131.0122,172.4741z"/>
	<path d="M136.4956,168.9829c0.8169,0,1.4414,0.3232,1.8726,0.9688c0.4312,0.6465,0.647,1.585,0.647,2.8154
		c0,1.2275-0.2158,2.1641-0.647,2.8096c-0.4312,0.6465-1.0557,0.9697-1.8726,0.9697s-1.4414-0.3232-1.8726-0.9697
		c-0.4312-0.6455-0.647-1.582-0.647-2.8096c0-1.2305,0.2158-2.1689,0.647-2.8154
		C135.0542,169.3062,135.6787,168.9829,136.4956,168.9829z M136.4956,169.7642c-0.5078,0-0.8896,0.25-1.145,0.75
		c-0.2554,0.499-0.3833,1.25-0.3833,2.2529c0,0.999,0.1279,1.749,0.3833,2.249c0.2554,0.499,0.6372,0.749,1.145,0.749
		c0.5112,0,0.8945-0.25,1.1499-0.749c0.2554-0.5,0.3833-1.25,0.3833-2.249c0-1.0029-0.1279-1.7539-0.3833-2.2529
		C137.3901,170.0142,137.0068,169.7642,136.4956,169.7642z"/>
	<path d="M140.5874,168.8071h0.9033v4.4873l2.6807-2.3584h1.1475l-2.9004,2.5586l3.0225,2.9102h-1.1719l-2.7783-2.6709v2.6709
		h-0.9033V168.8071z"/>
</g>
<line x1="163.6462" y1="161.8116" x2="163.6462" y2="165.3116"/>
<line class="st1" x1="163.6462" y1="161.8116" x2="163.6462" y2="165.3116"/>
<g>
	<path d="M157.9087,169.1147h1.2402v4.751h1.04v0.8203h-1.04v1.7188h-0.9814v-1.7188h-3.291v-0.9521L157.9087,169.1147z
		 M158.1675,169.9741l-2.4902,3.8916h2.4902V169.9741z"/>
	<path d="M163.9292,168.9829c0.8169,0,1.4414,0.3232,1.8726,0.9688c0.4312,0.6465,0.647,1.585,0.647,2.8154
		c0,1.2275-0.2158,2.1641-0.647,2.8096c-0.4312,0.6465-1.0557,0.9697-1.8726,0.9697s-1.4414-0.3232-1.8726-0.9697
		c-0.4312-0.6455-0.647-1.582-0.647-2.8096c0-1.2305,0.2158-2.1689,0.647-2.8154
		C162.4878,169.3062,163.1123,168.9829,163.9292,168.9829z M163.9292,169.7642c-0.5078,0-0.8896,0.25-1.145,0.75
		c-0.2554,0.499-0.3833,1.25-0.3833,2.2529c0,0.999,0.1279,1.749,0.3833,2.249c0.2554,0.499,0.6372,0.749,1.145,0.749
		c0.5112,0,0.8945-0.25,1.1499-0.749c0.2554-0.5,0.3833-1.25,0.3833-2.249c0-1.0029-0.1279-1.7539-0.3833-2.2529
		C164.8237,170.0142,164.4404,169.7642,163.9292,169.7642z"/>
	<path d="M168.021,168.8071h0.9033v4.4873l2.6807-2.3584h1.1475l-2.9004,2.5586l3.0225,2.9102h-1.1719l-2.7783-2.6709v2.6709
		h-0.9033V168.8071z"/>
</g>
<line x1="191.08" y1="161.8116" x2="191.08" y2="165.3116"/>
<line class="st1" x1="191.08" y1="161.8116" x2="191.08" y2="165.3116"/>
<g>
	<path d="M182.9014,169.1147h3.8721v0.8301h-2.9688v1.7871c0.1431-0.0488,0.2866-0.085,0.4297-0.1104
		c0.1431-0.0234,0.2866-0.0361,0.4297-0.0361c0.814,0,1.4585,0.2227,1.9336,0.6689s0.7129,1.0498,0.7129,1.8115
		c0,0.7842-0.2441,1.3936-0.7324,1.8291c-0.4883,0.4336-1.1768,0.6514-2.0654,0.6514c-0.3062,0-0.6177-0.0264-0.9351-0.0781
		s-0.6455-0.1299-0.9839-0.2344v-0.9912c0.293,0.1592,0.5957,0.2783,0.9082,0.3564s0.6431,0.1172,0.9912,0.1172
		c0.563,0,1.0093-0.1484,1.3379-0.4443s0.4932-0.6982,0.4932-1.2061s-0.1646-0.9102-0.4932-1.2061s-0.7749-0.4443-1.3379-0.4443
		c-0.2637,0-0.5264,0.0293-0.7886,0.0879s-0.5298,0.1494-0.8032,0.2734V169.1147z"/>
	<path d="M191.3633,168.9829c0.8169,0,1.4414,0.3232,1.8726,0.9688c0.4312,0.6465,0.647,1.585,0.647,2.8154
		c0,1.2275-0.2158,2.1641-0.647,2.8096c-0.4312,0.6465-1.0557,0.9697-1.8726,0.9697s-1.4414-0.3232-1.8726-0.9697
		c-0.4312-0.6455-0.647-1.582-0.647-2.8096c0-1.2305,0.2158-2.1689,0.647-2.8154
		C189.9219,169.3062,190.5464,168.9829,191.3633,168.9829z M191.3633,169.7642c-0.5078,0-0.8896,0.25-1.145,0.75
		c-0.2554,0.499-0.3833,1.25-0.3833,2.2529c0,0.999,0.1279,1.749,0.3833,2.249c0.2554,0.499,0.6372,0.749,1.145,0.749
		c0.5112,0,0.8945-0.25,1.1499-0.749c0.2554-0.5,0.3833-1.25,0.3833-2.249c0-1.0029-0.1279-1.7539-0.3833-2.2529
		C192.2578,170.0142,191.8745,169.7642,191.3633,169.7642z"/>
	<path d="M195.4551,168.8071h0.9033v4.4873l2.6807-2.3584h1.1475l-2.9004,2.5586l3.0225,2.9102h-1.1719l-2.7783-2.6709v2.6709
		h-0.9033V168.8071z"/>
</g>
<g>
	<path d="M70.8613,182.7866h1.3281l3.2324,6.0986v-6.0986h0.957v7.29h-1.3281l-3.2324-6.0986v6.0986h-0.957V182.7866z"/>
	<path d="M78.21,187.9185v-3.3105h0.8984v3.2764c0,0.5176,0.1011,0.9053,0.3027,1.165c0.2017,0.2578,0.5044,0.3877,0.9082,0.3877
		c0.4849,0,0.8682-0.1543,1.1499-0.4639s0.4224-0.7305,0.4224-1.2646v-3.1006H82.79v5.4688h-0.8984v-0.8398
		c-0.2183,0.332-0.4712,0.5781-0.7593,0.7402c-0.2881,0.1602-0.6226,0.2412-1.0034,0.2412c-0.6284,0-1.105-0.1953-1.4307-0.5859
		S78.21,188.6704,78.21,187.9185z"/>
	<path d="M88.8984,185.6577c0.2246-0.4033,0.4932-0.7012,0.8057-0.8936s0.6802-0.2881,1.1035-0.2881
		c0.5698,0,1.0093,0.1992,1.3184,0.5986c0.3091,0.3984,0.4639,0.9658,0.4639,1.7012v3.3008h-0.9033v-3.2715
		c0-0.5244-0.0928-0.9131-0.2783-1.167s-0.4688-0.3809-0.8496-0.3809c-0.4653,0-0.8335,0.1543-1.1035,0.4639
		s-0.4053,0.7305-0.4053,1.2646v3.0908h-0.9033v-3.2715c0-0.5273-0.0928-0.917-0.2783-1.1699
		c-0.1855-0.252-0.4722-0.3779-0.8594-0.3779c-0.459,0-0.8237,0.1553-1.0938,0.4658c-0.27,0.3115-0.4053,0.7324-0.4053,1.2627
		v3.0908h-0.9033v-5.4688h0.9033v0.8496c0.2051-0.335,0.4507-0.583,0.7373-0.7422s0.6265-0.2393,1.0205-0.2393
		c0.397,0,0.7349,0.1006,1.0132,0.3027S88.7651,185.2739,88.8984,185.6577z"/>
	<path d="M95.251,185.438c0.189-0.3252,0.4272-0.5674,0.7153-0.7246c0.2881-0.1582,0.6323-0.2373,1.0327-0.2373
		c0.6641,0,1.2036,0.2637,1.6187,0.791s0.6226,1.2207,0.6226,2.0801s-0.2075,1.5527-0.6226,2.0801s-0.9546,0.791-1.6187,0.791
		c-0.4004,0-0.7446-0.0791-1.0327-0.2373c-0.2881-0.1572-0.5264-0.3994-0.7153-0.7246v0.8203h-0.9033v-7.5977h0.9033V185.438z
		 M98.3076,187.3472c0-0.6611-0.1357-1.1787-0.4077-1.5557c-0.272-0.375-0.6455-0.5635-1.1206-0.5635s-0.8486,0.1885-1.1206,0.5635
		c-0.272,0.377-0.4077,0.8945-0.4077,1.5557s0.1357,1.1787,0.4077,1.5557c0.272,0.375,0.6455,0.5635,1.1206,0.5635
		s0.8486-0.1885,1.1206-0.5635C98.1719,188.5259,98.3076,188.0083,98.3076,187.3472z"/>
	<path d="M105.4072,187.1177v0.4395h-4.1309c0.0391,0.6182,0.2256,1.0898,0.5591,1.4141c0.3335,0.3232,0.7983,0.4854,1.394,0.4854
		c0.3452,0,0.6797-0.042,1.0034-0.127s0.6455-0.2119,0.9644-0.3809v0.8496c-0.3223,0.1367-0.6528,0.2412-0.9912,0.3125
		s-0.6821,0.1074-1.0303,0.1074c-0.8726,0-1.5635-0.2539-2.0728-0.7617s-0.7642-1.1943-0.7642-2.0605
		c0-0.8955,0.2417-1.6055,0.7251-2.1318c0.4834-0.5254,1.1353-0.7881,1.9556-0.7881c0.7358,0,1.3174,0.2373,1.7456,0.71
		C105.1934,185.6606,105.4072,186.3042,105.4072,187.1177z M104.5088,186.854c-0.0063-0.4912-0.144-0.8838-0.4126-1.1768
		s-0.624-0.4395-1.0669-0.4395c-0.5015,0-0.9023,0.1416-1.2036,0.4248s-0.4746,0.6816-0.52,1.1963L104.5088,186.854z"/>
	<path d="M110.0508,185.4478c-0.1011-0.0586-0.2109-0.1016-0.3296-0.1289c-0.1187-0.0283-0.25-0.042-0.3931-0.042
		c-0.5078,0-0.8975,0.165-1.1694,0.4951c-0.272,0.3311-0.4077,0.8057-0.4077,1.4238v2.8809h-0.9033v-5.4688h0.9033v0.8496
		c0.189-0.332,0.4346-0.5781,0.7373-0.7402c0.3027-0.1602,0.6704-0.2412,1.1035-0.2412c0.062,0,0.1304,0.0039,0.2051,0.0127
		c0.0747,0.0078,0.1577,0.0195,0.249,0.0361L110.0508,185.4478z"/>
	<path d="M116.291,184.4761c0.7812,0,1.395,0.2539,1.8408,0.7617s0.6689,1.2109,0.6689,2.1094c0,0.8955-0.2231,1.5977-0.6689,2.1064
		c-0.4458,0.5098-1.0596,0.7646-1.8408,0.7646c-0.7847,0-1.3989-0.2549-1.8433-0.7646c-0.4443-0.5088-0.6665-1.2109-0.6665-2.1064
		c0-0.8984,0.2222-1.6016,0.6665-2.1094S115.5063,184.4761,116.291,184.4761z M116.291,185.2378
		c-0.4819,0-0.8628,0.1885-1.1426,0.5635c-0.2798,0.377-0.4199,0.8916-0.4199,1.5459s0.1392,1.1689,0.4175,1.5459
		c0.2783,0.375,0.6602,0.5635,1.145,0.5635c0.4785,0,0.8579-0.1885,1.1377-0.5664s0.4199-0.8916,0.4199-1.543
		c0-0.6475-0.1401-1.1611-0.4199-1.54C117.1489,185.4272,116.7695,185.2378,116.291,185.2378z"/>
	<path d="M123.0586,182.479v0.7471h-0.8594c-0.3223,0-0.5459,0.0654-0.6714,0.1953s-0.188,0.3643-0.188,0.7031v0.4834h1.4795v0.6982
		h-1.4795v4.7705h-0.9033v-4.7705h-0.8594v-0.6982h0.8594v-0.3809c0-0.6084,0.1416-1.0527,0.4248-1.3301
		c0.2832-0.2793,0.7324-0.418,1.3477-0.418H123.0586z"/>
	<path d="M127.0283,182.7866h0.9863v7.29h-0.9863V182.7866z"/>
	<path d="M130.8271,183.0552v1.5527h1.8506v0.6982h-1.8506v2.9688c0,0.4463,0.061,0.7324,0.1831,0.8594s0.3701,0.1904,0.7446,0.1904
		h0.9229v0.752h-0.9229c-0.6934,0-1.1719-0.1289-1.4355-0.3887c-0.2637-0.2578-0.3955-0.7295-0.3955-1.4131v-2.9688h-0.6592v-0.6982
		h0.6592v-1.5527H130.8271z"/>
	<path d="M138.5371,187.1177v0.4395h-4.1309c0.0391,0.6182,0.2256,1.0898,0.5591,1.4141c0.3335,0.3232,0.7983,0.4854,1.394,0.4854
		c0.3452,0,0.6797-0.042,1.0034-0.127s0.6455-0.2119,0.9644-0.3809v0.8496c-0.3223,0.1367-0.6528,0.2412-0.9912,0.3125
		s-0.6821,0.1074-1.0303,0.1074c-0.8726,0-1.5635-0.2539-2.0728-0.7617s-0.7642-1.1943-0.7642-2.0605
		c0-0.8955,0.2417-1.6055,0.7251-2.1318c0.4834-0.5254,1.1353-0.7881,1.9556-0.7881c0.7358,0,1.3174,0.2373,1.7456,0.71
		C138.3232,185.6606,138.5371,186.3042,138.5371,187.1177z M137.6387,186.854c-0.0063-0.4912-0.144-0.8838-0.4126-1.1768
		s-0.624-0.4395-1.0669-0.4395c-0.5015,0-0.9023,0.1416-1.2036,0.4248s-0.4746,0.6816-0.52,1.1963L137.6387,186.854z"/>
	<path d="M143.1807,185.4478c-0.1011-0.0586-0.2109-0.1016-0.3296-0.1289c-0.1187-0.0283-0.25-0.042-0.3931-0.042
		c-0.5078,0-0.8975,0.165-1.1694,0.4951c-0.272,0.3311-0.4077,0.8057-0.4077,1.4238v2.8809h-0.9033v-5.4688h0.9033v0.8496
		c0.189-0.332,0.4346-0.5781,0.7373-0.7402c0.3027-0.1602,0.6704-0.2412,1.1035-0.2412c0.062,0,0.1304,0.0039,0.2051,0.0127
		c0.0747,0.0078,0.1577,0.0195,0.249,0.0361L143.1807,185.4478z"/>
	<path d="M148.4004,186.9565v3.1201h-0.8984v-0.8301c-0.2051,0.332-0.4604,0.5771-0.7666,0.7344
		c-0.3062,0.1582-0.6802,0.2373-1.123,0.2373c-0.5601,0-1.0049-0.1572-1.3354-0.4717c-0.3306-0.3135-0.4956-0.7344-0.4956-1.2617
		c0-0.6152,0.2061-1.0791,0.6177-1.3916s1.0264-0.4688,1.8433-0.4688h1.2598v-0.0879c0-0.4131-0.1357-0.7334-0.4077-0.96
		c-0.272-0.2256-0.6533-0.3389-1.145-0.3389c-0.3125,0-0.6167,0.0371-0.9131,0.1123s-0.5811,0.1875-0.8545,0.3369v-0.8301
		c0.3286-0.127,0.6479-0.2217,0.957-0.2861c0.3091-0.0625,0.6104-0.0947,0.9033-0.0947c0.791,0,1.3818,0.2051,1.7725,0.6152
		S148.4004,186.1235,148.4004,186.9565z M146.6084,187.3276c-0.7261,0-1.229,0.083-1.5088,0.249s-0.4199,0.4492-0.4199,0.8496
		c0,0.3193,0.105,0.5723,0.3149,0.7598c0.21,0.1865,0.4956,0.2803,0.8569,0.2803c0.498,0,0.8975-0.1768,1.1987-0.5303
		c0.3013-0.3525,0.4517-0.8223,0.4517-1.4082v-0.2002H146.6084z"/>
	<path d="M151.1396,183.0552v1.5527h1.8506v0.6982h-1.8506v2.9688c0,0.4463,0.061,0.7324,0.1831,0.8594s0.3701,0.1904,0.7446,0.1904
		h0.9229v0.752h-0.9229c-0.6934,0-1.1719-0.1289-1.4355-0.3887c-0.2637-0.2578-0.3955-0.7295-0.3955-1.4131v-2.9688h-0.6592v-0.6982
		h0.6592v-1.5527H151.1396z"/>
	<path d="M154.1719,182.479h0.8984v1.1377h-0.8984V182.479z M154.1719,184.6079h0.8984v5.4688h-0.8984V184.6079z"/>
	<path d="M159.0693,184.4761c0.7812,0,1.395,0.2539,1.8408,0.7617s0.6689,1.2109,0.6689,2.1094
		c0,0.8955-0.2231,1.5977-0.6689,2.1064c-0.4458,0.5098-1.0596,0.7646-1.8408,0.7646c-0.7847,0-1.3989-0.2549-1.8433-0.7646
		c-0.4443-0.5088-0.6665-1.2109-0.6665-2.1064c0-0.8984,0.2222-1.6016,0.6665-2.1094S158.2847,184.4761,159.0693,184.4761z
		 M159.0693,185.2378c-0.4819,0-0.8628,0.1885-1.1426,0.5635c-0.2798,0.377-0.4199,0.8916-0.4199,1.5459
		s0.1392,1.1689,0.4175,1.5459c0.2783,0.375,0.6602,0.5635,1.145,0.5635c0.4785,0,0.8579-0.1885,1.1377-0.5664
		s0.4199-0.8916,0.4199-1.543c0-0.6475-0.1401-1.1611-0.4199-1.54C159.9272,185.4272,159.5479,185.2378,159.0693,185.2378z"/>
	<path d="M167.6143,186.7759v3.3008h-0.8984v-3.2715c0-0.5176-0.1011-0.9053-0.3027-1.1621s-0.5044-0.3857-0.9082-0.3857
		c-0.4849,0-0.8677,0.1543-1.1475,0.4639s-0.4199,0.7305-0.4199,1.2646v3.0908h-0.9033v-5.4688h0.9033v0.8496
		c0.2148-0.3291,0.4678-0.5742,0.7593-0.7373s0.6274-0.2441,1.0083-0.2441c0.6284,0,1.1035,0.1943,1.4258,0.583
		C167.4531,185.4487,167.6143,186.021,167.6143,186.7759z"/>
	<path d="M172.8926,184.769v0.8496c-0.2539-0.1299-0.5176-0.2275-0.791-0.293s-0.5566-0.0977-0.8496-0.0977
		c-0.4458,0-0.7803,0.0684-1.0034,0.2051s-0.3345,0.3418-0.3345,0.6152c0,0.208,0.0796,0.3721,0.2393,0.4912
		c0.1597,0.1182,0.48,0.2314,0.9619,0.3389l0.3076,0.0684c0.6382,0.1367,1.0913,0.3291,1.3599,0.5791
		c0.2686,0.248,0.4028,0.5957,0.4028,1.042c0,0.5078-0.2012,0.9102-0.603,1.2061s-0.9546,0.4443-1.6577,0.4443
		c-0.293,0-0.5981-0.0283-0.9155-0.085c-0.3174-0.0576-0.6519-0.1426-1.0034-0.2568v-0.9277
		c0.332,0.1729,0.6592,0.3018,0.9814,0.3877c0.3223,0.0869,0.6411,0.1299,0.957,0.1299c0.4233,0,0.7485-0.0723,0.9766-0.2178
		c0.228-0.1445,0.3418-0.3486,0.3418-0.6123c0-0.2441-0.082-0.4316-0.2466-0.5615s-0.5249-0.2559-1.0815-0.376l-0.3125-0.0732
		c-0.5566-0.1172-0.9585-0.2969-1.2061-0.5391c-0.2476-0.2432-0.3711-0.5762-0.3711-0.999c0-0.5146,0.1821-0.9111,0.5469-1.1914
		s0.8823-0.4199,1.5527-0.4199c0.332,0,0.6445,0.0244,0.9375,0.0732S172.645,184.6714,172.8926,184.769z"/>
</g>
<line x1="47.1215" y1="154.3372" x2="43.6215" y2="154.3372"/>
<line class="st1" x1="47.1215" y1="154.3372" x2="43.6215" y2="154.3372"/>
<g>
	<path d="M21.0347,150.7114c0.8169,0,1.4414,0.3232,1.8726,0.9688c0.4312,0.6465,0.647,1.585,0.647,2.8154
		c0,1.2275-0.2158,2.1641-0.647,2.8096c-0.4312,0.6465-1.0557,0.9697-1.8726,0.9697s-1.4414-0.3232-1.8726-0.9697
		c-0.4312-0.6455-0.647-1.582-0.647-2.8096c0-1.2305,0.2158-2.1689,0.647-2.8154
		C19.5933,151.0347,20.2178,150.7114,21.0347,150.7114z M21.0347,151.4927c-0.5078,0-0.8896,0.25-1.145,0.75
		c-0.2554,0.499-0.3833,1.25-0.3833,2.2529c0,0.999,0.1279,1.749,0.3833,2.249c0.2554,0.499,0.6372,0.749,1.145,0.749
		c0.5112,0,0.8945-0.25,1.1499-0.749c0.2554-0.5,0.3833-1.25,0.3833-2.249c0-1.0029-0.1279-1.7539-0.3833-2.2529
		C21.9292,151.7427,21.5459,151.4927,21.0347,151.4927z"/>
	<path d="M25.2876,156.8931h1.0303v1.2402h-1.0303V156.8931z"/>
	<path d="M30.5757,150.7114c0.8169,0,1.4414,0.3232,1.8726,0.9688c0.4312,0.6465,0.647,1.585,0.647,2.8154
		c0,1.2275-0.2158,2.1641-0.647,2.8096c-0.4312,0.6465-1.0557,0.9697-1.8726,0.9697s-1.4414-0.3232-1.8726-0.9697
		c-0.4312-0.6455-0.647-1.582-0.647-2.8096c0-1.2305,0.2158-2.1689,0.647-2.8154
		C29.1343,151.0347,29.7588,150.7114,30.5757,150.7114z M30.5757,151.4927c-0.5078,0-0.8896,0.25-1.145,0.75
		c-0.2554,0.499-0.3833,1.25-0.3833,2.2529c0,0.999,0.1279,1.749,0.3833,2.249c0.2554,0.499,0.6372,0.749,1.145,0.749
		c0.5112,0,0.8945-0.25,1.1499-0.749c0.2554-0.5,0.3833-1.25,0.3833-2.249c0-1.0029-0.1279-1.7539-0.3833-2.2529
		C31.4702,151.7427,31.0869,151.4927,30.5757,151.4927z"/>
	<path d="M36.938,150.7114c0.8169,0,1.4414,0.3232,1.8726,0.9688c0.4312,0.6465,0.647,1.585,0.647,2.8154
		c0,1.2275-0.2158,2.1641-0.647,2.8096c-0.4312,0.6465-1.0557,0.9697-1.8726,0.9697s-1.4414-0.3232-1.8726-0.9697
		c-0.4312-0.6455-0.647-1.582-0.647-2.8096c0-1.2305,0.2158-2.1689,0.647-2.8154C35.4966,151.0347,36.1211,150.7114,36.938,150.7114
		z M36.938,151.4927c-0.5078,0-0.8896,0.25-1.145,0.75c-0.2554,0.499-0.3833,1.25-0.3833,2.2529c0,0.999,0.1279,1.749,0.3833,2.249
		c0.2554,0.499,0.6372,0.749,1.145,0.749c0.5112,0,0.8945-0.25,1.1499-0.749c0.2554-0.5,0.3833-1.25,0.3833-2.249
		c0-1.0029-0.1279-1.7539-0.3833-2.2529C37.8325,151.7427,37.4492,151.4927,36.938,151.4927z"/>
</g>
<line x1="47.1215" y1="116.9651" x2="43.6215" y2="116.9651"/>
<line class="st1" x1="47.1215" y1="116.9651" x2="43.6215" y2="116.9651"/>
<g>
	<path d="M21.0347,113.3394c0.8169,0,1.4414,0.3232,1.8726,0.9688c0.4312,0.6465,0.647,1.585,0.647,2.8154
		c0,1.2275-0.2158,2.1641-0.647,2.8096c-0.4312,0.6465-1.0557,0.9697-1.8726,0.9697s-1.4414-0.3232-1.8726-0.9697
		c-0.4312-0.6455-0.647-1.582-0.647-2.8096c0-1.2305,0.2158-2.1689,0.647-2.8154
		C19.5933,113.6626,20.2178,113.3394,21.0347,113.3394z M21.0347,114.1206c-0.5078,0-0.8896,0.25-1.145,0.75
		c-0.2554,0.499-0.3833,1.25-0.3833,2.2529c0,0.999,0.1279,1.749,0.3833,2.249c0.2554,0.499,0.6372,0.749,1.145,0.749
		c0.5112,0,0.8945-0.25,1.1499-0.749c0.2554-0.5,0.3833-1.25,0.3833-2.249c0-1.0029-0.1279-1.7539-0.3833-2.2529
		C21.9292,114.3706,21.5459,114.1206,21.0347,114.1206z"/>
	<path d="M25.2876,119.521h1.0303v1.2402h-1.0303V119.521z"/>
	<path d="M29.3159,119.9312h3.4424v0.8301h-4.6289v-0.8301c0.3745-0.3877,0.8848-0.9072,1.5308-1.5605
		c0.646-0.6523,1.0522-1.0732,1.2183-1.2617c0.3159-0.3545,0.5361-0.6553,0.6616-0.9004c0.1255-0.2461,0.188-0.4883,0.188-0.7256
		c0-0.3877-0.1357-0.7031-0.4077-0.9473s-0.626-0.3662-1.062-0.3662c-0.3091,0-0.6357,0.0537-0.979,0.1611
		s-0.7104,0.2705-1.1011,0.4883v-0.9961c0.397-0.1592,0.7681-0.2803,1.1133-0.3613s0.6606-0.1221,0.9473-0.1221
		c0.7554,0,1.3574,0.1885,1.8066,0.5664s0.6738,0.8818,0.6738,1.5137c0,0.2998-0.0562,0.584-0.1685,0.8516
		c-0.1123,0.2695-0.3164,0.5859-0.6128,0.9502c-0.0815,0.0947-0.3403,0.3672-0.7764,0.8174
		C30.7256,118.4897,30.1104,119.1206,29.3159,119.9312z"/>
	<path d="M34.8384,113.4712h3.8721v0.8301h-2.9688v1.7871c0.1431-0.0488,0.2866-0.085,0.4297-0.1104
		c0.1431-0.0234,0.2866-0.0361,0.4297-0.0361c0.814,0,1.4585,0.2227,1.9336,0.6689s0.7129,1.0498,0.7129,1.8115
		c0,0.7842-0.2441,1.3936-0.7324,1.8291c-0.4883,0.4336-1.1768,0.6514-2.0654,0.6514c-0.3062,0-0.6177-0.0264-0.9351-0.0781
		s-0.6455-0.1299-0.9839-0.2344v-0.9912c0.293,0.1592,0.5957,0.2783,0.9082,0.3564s0.6431,0.1172,0.9912,0.1172
		c0.563,0,1.0093-0.1484,1.3379-0.4443s0.4932-0.6982,0.4932-1.2061s-0.1646-0.9102-0.4932-1.2061s-0.7749-0.4443-1.3379-0.4443
		c-0.2637,0-0.5264,0.0293-0.7886,0.0879s-0.5298,0.1494-0.8032,0.2734V113.4712z"/>
</g>
<line x1="47.1215" y1="79.593" x2="43.6215" y2="79.593"/>
<line class="st1" x1="47.1215" y1="79.593" x2="43.6215" y2="79.593"/>
<g>
	<path d="M21.0347,75.9673c0.8169,0,1.4414,0.3232,1.8726,0.9692s0.647,1.5845,0.647,2.8149c0,1.2271-0.2158,2.1641-0.647,2.8101
		s-1.0557,0.9692-1.8726,0.9692s-1.4414-0.3232-1.8726-0.9692s-0.647-1.583-0.647-2.8101c0-1.2305,0.2158-2.1689,0.647-2.8149
		S20.2178,75.9673,21.0347,75.9673z M21.0347,76.7485c-0.5078,0-0.8896,0.25-1.145,0.7495s-0.3833,1.251-0.3833,2.2534
		c0,0.9995,0.1279,1.749,0.3833,2.2485s0.6372,0.7495,1.145,0.7495c0.5112,0,0.8945-0.25,1.1499-0.7495s0.3833-1.249,0.3833-2.2485
		c0-1.0024-0.1279-1.7539-0.3833-2.2534S21.5459,76.7485,21.0347,76.7485z"/>
	<path d="M25.2876,82.1489h1.0303v1.2402h-1.0303V82.1489z"/>
	<path d="M28.4761,76.0991h3.8721v0.8301h-2.9688v1.7871c0.1431-0.0488,0.2866-0.0854,0.4297-0.1099s0.2866-0.0366,0.4297-0.0366
		c0.814,0,1.4585,0.2231,1.9336,0.6689s0.7129,1.0498,0.7129,1.8115c0,0.7847-0.2441,1.394-0.7324,1.8286
		s-1.1768,0.6519-2.0654,0.6519c-0.3062,0-0.6177-0.0259-0.9351-0.0781s-0.6455-0.1304-0.9839-0.2344v-0.9912
		c0.293,0.1597,0.5957,0.2783,0.9082,0.3564s0.6431,0.1172,0.9912,0.1172c0.563,0,1.0093-0.1479,1.3379-0.4443
		s0.4932-0.6982,0.4932-1.2061s-0.1646-0.9097-0.4932-1.2061s-0.7749-0.4443-1.3379-0.4443c-0.2637,0-0.5264,0.0293-0.7886,0.0879
		s-0.5298,0.1499-0.8032,0.2734V76.0991z"/>
	<path d="M36.938,75.9673c0.8169,0,1.4414,0.3232,1.8726,0.9692s0.647,1.5845,0.647,2.8149c0,1.2271-0.2158,2.1641-0.647,2.8101
		s-1.0557,0.9692-1.8726,0.9692s-1.4414-0.3232-1.8726-0.9692s-0.647-1.583-0.647-2.8101c0-1.2305,0.2158-2.1689,0.647-2.8149
		S36.1211,75.9673,36.938,75.9673z M36.938,76.7485c-0.5078,0-0.8896,0.25-1.145,0.7495s-0.3833,1.251-0.3833,2.2534
		c0,0.9995,0.1279,1.749,0.3833,2.2485s0.6372,0.7495,1.145,0.7495c0.5112,0,0.8945-0.25,1.1499-0.7495s0.3833-1.249,0.3833-2.2485
		c0-1.0024-0.1279-1.7539-0.3833-2.2534S37.4492,76.7485,36.938,76.7485z"/>
</g>
<line x1="47.1215" y1="42.221" x2="43.6215" y2="42.221"/>
<line class="st1" x1="47.1215" y1="42.221" x2="43.6215" y2="42.221"/>
<g>
	<path d="M21.0347,38.5952c0.8169,0,1.4414,0.3232,1.8726,0.9692s0.647,1.5845,0.647,2.8149c0,1.2271-0.2158,2.1641-0.647,2.8101
		s-1.0557,0.9692-1.8726,0.9692s-1.4414-0.3232-1.8726-0.9692s-0.647-1.583-0.647-2.8101c0-1.2305,0.2158-2.1689,0.647-2.8149
		S20.2178,38.5952,21.0347,38.5952z M21.0347,39.3765c-0.5078,0-0.8896,0.25-1.145,0.7495s-0.3833,1.251-0.3833,2.2534
		c0,0.9995,0.1279,1.749,0.3833,2.2485s0.6372,0.7495,1.145,0.7495c0.5112,0,0.8945-0.25,1.1499-0.7495s0.3833-1.249,0.3833-2.2485
		c0-1.0024-0.1279-1.7539-0.3833-2.2534S21.5459,39.3765,21.0347,39.3765z"/>
	<path d="M25.2876,44.7769h1.0303v1.2402h-1.0303V44.7769z"/>
	<path d="M28.2173,38.7271h4.6875v0.4199l-2.6465,6.8701H29.228l2.4902-6.46h-3.501V38.7271z"/>
	<path d="M34.8384,38.7271h3.8721v0.8301h-2.9688v1.7871c0.1431-0.0488,0.2866-0.0854,0.4297-0.1099s0.2866-0.0366,0.4297-0.0366
		c0.814,0,1.4585,0.2231,1.9336,0.6689s0.7129,1.0498,0.7129,1.8115c0,0.7847-0.2441,1.394-0.7324,1.8286
		s-1.1768,0.6519-2.0654,0.6519c-0.3062,0-0.6177-0.0259-0.9351-0.0781s-0.6455-0.1304-0.9839-0.2344V44.855
		c0.293,0.1597,0.5957,0.2783,0.9082,0.3564s0.6431,0.1172,0.9912,0.1172c0.563,0,1.0093-0.1479,1.3379-0.4443
		s0.4932-0.6982,0.4932-1.2061s-0.1646-0.9097-0.4932-1.2061s-0.7749-0.4443-1.3379-0.4443c-0.2637,0-0.5264,0.0293-0.7886,0.0879
		s-0.5298,0.1499-0.8032,0.2734V38.7271z"/>
</g>
<line x1="47.1215" y1="4.8489" x2="43.6215" y2="4.8489"/>
<line class="st1" x1="47.1215" y1="4.8489" x2="43.6215" y2="4.8489"/>
<g>
	<path d="M19.0962,7.8149h1.6113V2.2534L18.9546,2.605V1.7065l1.7432-0.3516h0.9863v6.46h1.6113V8.645h-4.1992V7.8149z"/>
	<path d="M25.2876,7.4048h1.0303V8.645h-1.0303V7.4048z"/>
	<path d="M30.5757,1.2231c0.8169,0,1.4414,0.3232,1.8726,0.9692s0.647,1.5845,0.647,2.8149c0,1.2271-0.2158,2.1641-0.647,2.8101
		s-1.0557,0.9692-1.8726,0.9692s-1.4414-0.3232-1.8726-0.9692s-0.647-1.583-0.647-2.8101c0-1.2305,0.2158-2.1689,0.647-2.8149
		S29.7588,1.2231,30.5757,1.2231z M30.5757,2.0044c-0.5078,0-0.8896,0.25-1.145,0.7495s-0.3833,1.251-0.3833,2.2534
		c0,0.9995,0.1279,1.749,0.3833,2.2485s0.6372,0.7495,1.145,0.7495c0.5112,0,0.8945-0.25,1.1499-0.7495s0.3833-1.249,0.3833-2.2485
		c0-1.0024-0.1279-1.7539-0.3833-2.2534S31.0869,2.0044,30.5757,2.0044z"/>
	<path d="M36.938,1.2231c0.8169,0,1.4414,0.3232,1.8726,0.9692s0.647,1.5845,0.647,2.8149c0,1.2271-0.2158,2.1641-0.647,2.8101
		s-1.0557,0.9692-1.8726,0.9692s-1.4414-0.3232-1.8726-0.9692s-0.647-1.583-0.647-2.8101c0-1.2305,0.2158-2.1689,0.647-2.8149
		S36.1211,1.2231,36.938,1.2231z M36.938,2.0044c-0.5078,0-0.8896,0.25-1.145,0.7495s-0.3833,1.251-0.3833,2.2534
		c0,0.9995,0.1279,1.749,0.3833,2.2485s0.6372,0.7495,1.145,0.7495c0.5112,0,0.8945-0.25,1.1499-0.7495s0.3833-1.249,0.3833-2.2485
		c0-1.0024-0.1279-1.7539-0.3833-2.2534S37.4492,2.0044,36.938,2.0044z"/>
</g>
<g>
	<path d="M2.5894,141.98v-0.9863h6.46v-3.5508h0.8301v4.5371H2.5894z"/>
</g>
<g>
	<path d="M2.2812,136.4487v-0.8984h1.1377v0.8984H2.2812z M4.4102,136.4487v-0.8984h5.4688v0.8984H4.4102z"/>
</g>
<g>
	<path d="M6.5791,129.1226h3.3008v0.8984H6.6084c-0.5176,0-0.9053,0.1016-1.1621,0.3027c-0.2568,0.2021-0.3857,0.5049-0.3857,0.9082
		c0,0.4854,0.1543,0.8682,0.4639,1.1484c0.3096,0.2793,0.7305,0.4199,1.2646,0.4199h3.0908v0.9023H4.4111v-0.9023h0.8496
		c-0.3291-0.2148-0.5742-0.4688-0.7373-0.7598s-0.2441-0.627-0.2441-1.0078c0-0.6289,0.1943-1.1035,0.583-1.4258
		C5.252,129.2847,5.8242,129.1226,6.5791,129.1226z"/>
</g>
<g>
	<path d="M6.9199,122.6519h0.4395v4.1309c0.6182-0.0391,1.0898-0.2266,1.4141-0.5596c0.3232-0.333,0.4854-0.7979,0.4854-1.3936
		c0-0.3457-0.042-0.6797-0.127-1.0039s-0.2119-0.6455-0.3809-0.9648h0.8496c0.1367,0.3223,0.2412,0.6533,0.3125,0.9922
		c0.0713,0.3379,0.1074,0.6816,0.1074,1.0293c0,0.873-0.2539,1.5645-0.7617,2.0732s-1.1943,0.7646-2.0605,0.7646
		c-0.8955,0-1.6055-0.2422-2.1318-0.7256c-0.5254-0.4834-0.7881-1.1357-0.7881-1.9561c0-0.7354,0.2373-1.3164,0.71-1.7451
		C5.4629,122.8647,6.1064,122.6519,6.9199,122.6519z M6.6562,123.5503c-0.4912,0.0059-0.8838,0.1436-1.1768,0.4121
		s-0.4395,0.624-0.4395,1.0664c0,0.502,0.1416,0.9023,0.4248,1.2041s0.6816,0.4746,1.1963,0.5205L6.6562,123.5503z"/>
</g>
<g>
	<path d="M6.7593,116.9019h3.1201v0.8984H9.0493c0.332,0.2051,0.5771,0.46,0.7344,0.7656c0.1582,0.3066,0.2373,0.6807,0.2373,1.123
		c0,0.5605-0.1572,1.0059-0.4717,1.3359c-0.3135,0.3301-0.7344,0.4961-1.2617,0.4961c-0.6152,0-1.0791-0.207-1.3916-0.6182
		s-0.4688-1.0264-0.4688-1.8428v-1.2598H6.3394c-0.4131,0-0.7334,0.1348-0.96,0.4072c-0.2256,0.2725-0.3389,0.6533-0.3389,1.1455
		c0,0.3125,0.0371,0.6162,0.1123,0.9121c0.0752,0.2969,0.1875,0.582,0.3369,0.8555H4.6597c-0.127-0.3291-0.2217-0.6484-0.2861-0.957
		c-0.0625-0.3096-0.0947-0.6113-0.0947-0.9043c0-0.791,0.2051-1.3809,0.6152-1.7715S5.9263,116.9019,6.7593,116.9019z
		 M7.1304,118.6929c0,0.7266,0.083,1.2295,0.249,1.5098c0.166,0.2793,0.4492,0.4199,0.8496,0.4199
		c0.3193,0,0.5723-0.1055,0.7598-0.3154c0.1865-0.21,0.2803-0.4951,0.2803-0.8564c0-0.498-0.1768-0.8984-0.5303-1.1992
		c-0.3525-0.3008-0.8223-0.4512-1.4082-0.4512H7.1304V118.6929z"/>
</g>
<g>
	<path d="M5.25,111.8804c-0.0586,0.1006-0.1016,0.2109-0.1289,0.3291c-0.0283,0.1182-0.042,0.25-0.042,0.3936
		c0,0.5078,0.165,0.8965,0.4951,1.1689c0.3311,0.2725,0.8057,0.4072,1.4238,0.4072h2.8809v0.9043H4.4102v-0.9043h0.8496
		c-0.332-0.1885-0.5781-0.4336-0.7402-0.7363c-0.1602-0.3027-0.2412-0.6709-0.2412-1.1035c0-0.0625,0.0039-0.1309,0.0127-0.2051
		c0.0078-0.0752,0.0195-0.1582,0.0361-0.25L5.25,111.8804z"/>
</g>
<g>
</g>
<g>
	<path d="M2.2817,107.7593v-0.8984h1.1377v0.8984H2.2817z M4.4106,107.7593v-0.8984h5.4688v0.8984H4.4106z"/>
</g>
<g>
	<path d="M5.2407,101.3804h-2.959v-0.8984h7.5977v0.8984H9.0591c0.3252,0.1885,0.5674,0.4268,0.7246,0.7148
		c0.1582,0.2881,0.2373,0.6338,0.2373,1.0371c0,0.6611-0.2637,1.1992-0.791,1.6143s-1.2207,0.6221-2.0801,0.6221
		s-1.5527-0.207-2.0801-0.6221s-0.791-0.9531-0.791-1.6143c0-0.4033,0.0791-0.749,0.2373-1.0371
		C4.6733,101.8071,4.9155,101.5688,5.2407,101.3804z M7.1499,104.4409c0.6611,0,1.1787-0.1348,1.5557-0.4072
		c0.375-0.2725,0.5635-0.6455,0.5635-1.1201c0-0.4756-0.1885-0.8496-0.5635-1.123c-0.377-0.2734-0.8945-0.4102-1.5557-0.4102
		s-1.1787,0.1367-1.5557,0.4102c-0.375,0.2734-0.5635,0.6475-0.5635,1.123c0,0.4746,0.1885,0.8477,0.5635,1.1201
		C5.9712,104.3062,6.4888,104.4409,7.1499,104.4409z"/>
</g>
<g>
	<path d="M6.9209,93.9507h0.4395v4.1309c0.6182-0.0391,1.0898-0.2246,1.4141-0.5586c0.3232-0.334,0.4854-0.7988,0.4854-1.3945
		c0-0.3447-0.042-0.6797-0.127-1.0029S8.9209,94.48,8.752,94.1616h0.8496c0.1367,0.3223,0.2412,0.6523,0.3125,0.9902
		c0.0713,0.3389,0.1074,0.6826,0.1074,1.0312c0,0.8721-0.2539,1.5625-0.7617,2.0723S8.0654,99.019,7.1992,99.019
		c-0.8955,0-1.6055-0.2412-2.1318-0.7246c-0.5254-0.4834-0.7881-1.1348-0.7881-1.9551c0-0.7363,0.2373-1.3184,0.71-1.7461
		C5.4639,94.1655,6.1074,93.9507,6.9209,93.9507z M6.6572,94.8491c-0.4912,0.0068-0.8838,0.1445-1.1768,0.4131
		s-0.4395,0.624-0.4395,1.0674c0,0.501,0.1416,0.9023,0.4248,1.2031s0.6816,0.4746,1.1963,0.5195L6.6572,94.8491z"/>
</g>
<g>
	<path d="M6.5786,87.9326h3.3008v0.8984H6.6079c-0.5176,0-0.9048,0.1011-1.1621,0.3027s-0.3857,0.5044-0.3857,0.9082
		c0,0.4849,0.1548,0.8677,0.4639,1.1475s0.731,0.4199,1.2646,0.4199h3.0908v0.9033H4.4106v-0.9033h0.8496
		c-0.3286-0.2148-0.5747-0.4678-0.7373-0.7593s-0.2441-0.6274-0.2441-1.0083c0-0.6284,0.1943-1.1035,0.5835-1.4258
		S5.8232,87.9326,6.5786,87.9326z"/>
</g>
<g>
	<path d="M2.8574,85.25h1.5527v-1.8506h0.6982V85.25h2.9688c0.4458,0,0.7324-0.061,0.8594-0.1831s0.1904-0.3701,0.1904-0.7446
		v-0.9229h0.752v0.9229c0,0.6934-0.1294,1.1719-0.3882,1.4355s-0.73,0.3955-1.4136,0.3955H5.1084v0.6592H4.4102v-0.6592H2.8574
		V85.25z"/>
</g>
<g>
	<path d="M2.2812,82.2188v-0.8984h1.1377v0.8984H2.2812z M4.4102,82.2188v-0.8984h5.4688v0.8984H4.4102z"/>
</g>
<g>
	<path d="M2.2817,76.6699h0.7471v0.8594c0,0.3223,0.0649,0.5459,0.1953,0.6714s0.3647,0.188,0.7031,0.188h0.4834v-1.4795h0.6982
		v1.4795h4.7705v0.9033H5.1089v0.8594H4.4106V79.292H4.0298c-0.6089,0-1.0522-0.1416-1.3306-0.4248s-0.4175-0.7324-0.4175-1.3477
		V76.6699z"/>
</g>
<g>
	<path d="M2.2817,75.9189v-0.8984h1.1377v0.8984H2.2817z M4.4106,75.9189v-0.8984h5.4688v0.8984H4.4106z"/>
</g>
<g>
	<path d="M6.7588,68.8613h3.1201v0.8984H9.0488c0.332,0.2051,0.5771,0.4604,0.7349,0.7666s0.2368,0.6802,0.2368,1.123
		c0,0.5601-0.1572,1.0049-0.4712,1.3354s-0.7349,0.4956-1.2622,0.4956c-0.6152,0-1.0791-0.2061-1.3916-0.6177
		s-0.4688-1.0264-0.4688-1.8433v-1.2598H6.3389c-0.4136,0-0.7334,0.1357-0.9595,0.4077S5.04,70.8208,5.04,71.3125
		c0,0.3125,0.0376,0.6167,0.1123,0.9131s0.187,0.5811,0.3369,0.8545H4.6592c-0.127-0.3286-0.2222-0.6479-0.2856-0.957
		s-0.0952-0.6104-0.0952-0.9033c0-0.791,0.2051-1.3818,0.6152-1.7725S5.9253,68.8613,6.7588,68.8613z M7.1299,70.6533
		c0,0.7261,0.083,1.229,0.249,1.5088s0.4492,0.4199,0.8496,0.4199c0.3188,0,0.5723-0.105,0.7593-0.3149s0.2808-0.4956,0.2808-0.8569
		c0-0.498-0.1768-0.8975-0.5298-1.1987s-0.8228-0.4517-1.4087-0.4517H7.1299V70.6533z"/>
</g>
<g>
	<path d="M5.2407,66.1396c-0.3257-0.189-0.5674-0.4272-0.7251-0.7153s-0.2368-0.6323-0.2368-1.0327
		c0-0.6641,0.2637-1.2036,0.791-1.6187s1.2207-0.6226,2.0801-0.6226s1.5527,0.2075,2.0801,0.6226s0.791,0.9546,0.791,1.6187
		c0,0.4004-0.0791,0.7446-0.2368,1.0327s-0.3994,0.5264-0.7251,0.7153h0.8203v0.9033H2.2817v-0.9033H5.2407z M7.1499,63.083
		c-0.6606,0-1.1792,0.1357-1.5552,0.4077s-0.564,0.6455-0.564,1.1206s0.188,0.8486,0.564,1.1206s0.8945,0.4077,1.5552,0.4077
		s1.1792-0.1357,1.5552-0.4077s0.564-0.6455,0.564-1.1206s-0.188-0.8486-0.564-1.1206S7.8105,63.083,7.1499,63.083z"/>
</g>
<g>
	<path d="M2.2812,60.6592v-0.8984h1.1377v0.8984H2.2812z M4.4102,60.6592v-0.8984h5.4688v0.8984H4.4102z"/>
</g>
<g>
	<path d="M2.2817,57.8789v-0.8984h7.5977v0.8984H2.2817z"/>
</g>
<g>
	<path d="M2.2817,55.0986v-0.8984h1.1377v0.8984H2.2817z M4.4106,55.0986v-0.8984h5.4688v0.8984H4.4106z"/>
</g>
<g>
	<path d="M2.8579,51.4307h1.5527v-1.8506h0.6982v1.8506h2.9688c0.4458,0,0.7324-0.061,0.8594-0.1831s0.1904-0.3701,0.1904-0.7446
		v-0.9229h0.752v0.9229c0,0.6934-0.1294,1.1719-0.3882,1.4355s-0.73,0.3955-1.4136,0.3955H5.1089v0.6592H4.4106V52.334H2.8579
		V51.4307z"/>
</g>
<g>
	<path d="M10.3872,46.123c0.6509,0.2539,1.0757,0.5015,1.2744,0.7422s0.2979,0.563,0.2979,0.9668v0.7178h-0.752v-0.5273
		c0-0.2476-0.0586-0.4395-0.1758-0.5762s-0.394-0.2881-0.8301-0.4541l-0.4102-0.1611L4.4106,49.043v-0.9521l4.2773-1.709
		l-4.2773-1.709v-0.9521L10.3872,46.123z"/>
</g>
<g>
</g>
<g>
	<path d="M2.2812,39.3818v-2.0703h0.6982v1.1719h7.5195v-1.1719h0.6982v2.0703H2.2812z"/>
</g>
<g>
	<path d="M6.3784,32.0107c0.0488-0.2085,0.1689-0.3818,0.3613-0.52c0.1914-0.1382,0.5742-0.2988,1.1475-0.481l1.9922-0.6201v1.04
		L8.0093,32.001c-0.4824,0.1465-0.8047,0.3159-0.9668,0.5078c-0.1631,0.1919-0.2441,0.4868-0.2441,0.8838v1.0889l3.0811,0.6006
		v0.9912l-7.29-1.4209v-2.2217c0-0.6738,0.1523-1.1904,0.4561-1.5503c0.3047-0.3599,0.7432-0.5396,1.3164-0.5396
		c0.5078,0,0.9473,0.1528,1.3184,0.459S6.2837,31.5093,6.3784,32.0107z M3.3999,33.8223l2.5879,0.498v-1.2695
		c0-0.498-0.1377-0.9009-0.4131-1.2085c-0.2744-0.3076-0.6338-0.4614-1.0762-0.4614c-0.3555,0-0.627,0.1035-0.8154,0.3101
		c-0.1895,0.2065-0.2832,0.5039-0.2832,0.8911V33.8223z"/>
</g>
<g>
	<path d="M5.4702,27.3657v-2.4097h0.5811v3.2402H5.4702c-0.271-0.2622-0.6353-0.6191-1.0918-1.0713
		c-0.457-0.4526-0.7515-0.7368-0.8838-0.853c-0.2485-0.2212-0.4585-0.3755-0.6309-0.4634
		c-0.1719-0.0874-0.3408-0.1313-0.5073-0.1313c-0.271,0-0.4922,0.0952-0.6631,0.2856c-0.1709,0.1899-0.2563,0.438-0.2563,0.7432
		c0,0.2163,0.0376,0.4448,0.1128,0.6855c0.0752,0.2402,0.189,0.4971,0.3418,0.7705H1.1943
		c-0.1118-0.2778-0.1958-0.5376-0.2529-0.7793S0.856,26.9204,0.856,26.7197c0-0.5288,0.1323-0.9502,0.3965-1.2646
		s0.6177-0.4717,1.0596-0.4717c0.2095,0,0.4082,0.0391,0.5967,0.1182c0.1875,0.0781,0.4092,0.2212,0.6646,0.4287
		c0.0659,0.0571,0.2568,0.2383,0.5728,0.5435C4.4614,26.3789,4.9028,26.8096,5.4702,27.3657z"/>
</g>
<g>
	<path d="M2.2817,20.9395h8.916v2.0703h-0.6982v-1.167H2.98v1.167H2.2817V20.9395z"/>
</g>
<g>
	<defs>
		<rect id="SVGID_1_" x="47.1216" y="1.1125" width="149.377" height="160.699"/>
	</defs>
	<clipPath id="SVGID_00000153675096130847982640000008823390731442007479_">
		<use xlink:href="#SVGID_1_"  style="overflow:visible;"/>
	</clipPath>
	
		<polyline style="clip-path:url(#SVGID_00000153675096130847982640000008823390731442007479_);fill:none;stroke:#000000;stroke-width:1.5;stroke-linejoin:round;stroke-miterlimit:10;stroke-dasharray:1.5,2.475;" points="
		53.9113,87.7216 55.2832,77.0896 56.6542,63.5306 58.0262,59.8986 59.3983,45.9456 60.7692,42.8196 62.1412,41.2156 
		63.5132,41.0556 64.8853,39.5916 66.2562,38.7056 67.6282,38.4826 69.0002,37.9786 70.3712,36.9206 71.7433,36.2636 
		73.1152,36.5416 74.4862,37.1726 75.8582,37.2316 77.2303,36.0996 78.6012,36.7246 79.9732,37.1606 81.3452,35.7046 
		82.7162,35.2296 84.0882,36.0016 85.4602,33.6256 86.8322,7.9316 88.2032,8.5256 89.5753,7.4016 90.9472,7.2916 92.3182,7.4206 
		93.6902,7.2966 95.0623,7.1296 96.4332,6.8896 97.8052,7.3396 99.1772,6.7196 100.5482,6.7126 101.9202,6.6066 103.2922,6.9156 
		104.6632,7.2846 106.0352,7.1446 107.4072,6.6056 108.7782,6.9916 110.1502,6.7176 111.5222,7.2126 112.8943,6.5196 
		114.2652,7.1496 115.6372,7.1606 117.0092,6.4576 118.3802,6.6786 119.7523,7.3226 121.1242,6.5176 122.4952,5.9876 
		123.8672,6.8646 125.2393,6.8356 126.6102,6.1636 127.9822,6.6996 129.3542,6.3116 130.7253,6.2176 132.0972,6.4676 
		133.4692,6.2936 134.8412,7.1386 136.2122,6.5566 137.5842,6.3506 138.9562,6.6076 140.3272,6.6046 141.6992,6.1446 
		143.0713,6.4046 144.4422,6.6086 145.8142,6.6486 147.1862,6.4026 148.5573,6.1836 149.9292,6.1476 151.3012,6.4856 
		152.6722,6.0676 154.0443,6.3196 155.4162,6.2946 156.7882,6.0716 158.1592,6.0166 159.5312,6.2376 160.9032,6.1006 
		162.2742,6.2466 163.6462,5.9786 165.0182,6.2486 166.3893,6.0056 167.7612,6.0036 169.1332,6.2426 170.5042,6.4236 
		171.8763,6.1286 173.2482,6.9016 174.6192,6.0886 175.9912,5.9506 177.3633,6.2736 178.7352,6.5556 180.1062,6.4676 
		181.4782,5.9196 182.8503,6.0516 184.2213,6.6056 185.5933,6.1566 186.9652,5.9846 188.3362,5.9866 189.7083,6.0716 	"/>
	
		<polyline style="clip-path:url(#SVGID_00000153675096130847982640000008823390731442007479_);fill:none;stroke:#000000;stroke-width:1.5;stroke-linecap:square;stroke-linejoin:round;stroke-miterlimit:10;" points="
		53.9113,79.729 55.2832,51.568 56.6542,41.174 58.0262,30.814 59.3983,22.387 60.7692,17.405 62.1412,13.841 63.5132,13.221 
		64.8853,11.208 66.2562,9.717 67.6282,10.119 69.0002,8.808 70.3712,8.652 71.7433,8.024 73.1152,9.514 74.4862,8.165 
		75.8582,7.917 77.2303,7.702 78.6012,7.214 79.9732,7.472 81.3452,7.685 82.7162,7.623 84.0882,8.026 85.4602,6.972 86.8322,6.683 
		88.2032,7.159 89.5753,6.281 90.9472,6.652 92.3182,6.529 93.6902,6.494 95.0623,6.308 96.4332,6.292 97.8052,6.618 99.1772,6.218 
		100.5482,6.06 101.9202,6.124 103.2922,6.602 104.6632,6.745 106.0352,6.825 107.4072,6.068 108.7782,6.325 110.1502,6.381 
		111.5222,6.652 112.8943,5.913 114.2652,6.774 115.6372,6.735 117.0092,6.069 118.3802,6.056 119.7523,6.621 121.1242,5.888 
		122.4952,5.616 123.8672,6.222 125.2393,6.463 126.6102,5.666 127.9822,6.024 129.3542,6.001 130.7253,5.763 132.0972,5.924 
		133.4692,5.848 134.8412,6.22 136.2122,6.04 137.5842,5.939 138.9562,6.268 140.3272,6.334 141.6992,5.794 143.0713,5.932 
		144.4422,6.147 145.8142,6.251 147.1862,5.867 148.5573,5.848 149.9292,5.822 151.3012,5.987 152.6722,5.748 154.0443,5.697 
		155.4162,5.729 156.7882,5.744 158.1592,5.574 159.5312,5.941 160.9032,5.736 162.2742,5.825 163.6462,5.656 165.0182,6.015 
		166.3893,5.591 167.7612,5.613 169.1332,5.77 170.5042,6.023 171.8763,6.058 173.2482,6.309 174.6192,5.801 175.9912,5.631 
		177.3633,5.825 178.7352,6.128 180.1062,5.942 181.4782,5.637 182.8503,5.764 184.2213,6.099 185.5933,5.844 186.9652,5.652 
		188.3362,5.632 189.7083,5.784 	"/>
	
		<polyline style="clip-path:url(#SVGID_00000153675096130847982640000008823390731442007479_);fill:none;stroke:#ED2224;stroke-width:1.5;stroke-linejoin:round;stroke-miterlimit:10;stroke-dasharray:1.5,2.475;" points="
		53.9113,82.0347 55.2832,92.8657 56.6542,87.1637 58.0262,88.4337 59.3983,91.6387 60.7692,95.4737 62.1412,98.2797 
		63.5132,100.3587 64.8853,106.6887 66.2562,112.7097 67.6282,112.4077 69.0002,114.1517 70.3712,119.0707 71.7433,127.0517 
		73.1152,133.0627 74.4862,134.4847 75.8582,139.9877 77.2303,141.2877 78.6012,143.7137 79.9732,148.7057 81.3452,147.1717 
		82.7162,144.0267 84.0882,149.5227 85.4602,150.5487 86.8322,150.8817 88.2032,150.9217 89.5753,150.9877 90.9472,150.3437 
		92.3182,148.6247 93.6902,148.3397 95.0623,150.0687 96.4332,150.7097 97.8052,150.9917 99.1772,152.2667 100.5482,152.3397 
		101.9202,151.5827 103.2922,149.4607 104.6632,152.5127 106.0352,153.3267 107.4072,150.8617 108.7782,151.5257 110.1502,152.3797 
		111.5222,152.5387 112.8943,152.1557 114.2652,151.9267 115.6372,152.3167 117.0092,152.9507 118.3802,152.2017 119.7523,152.4587 
		121.1242,152.0927 122.4952,152.9287 123.8672,153.0967 125.2393,152.3937 126.6102,152.4747 127.9822,151.8227 129.3542,151.4597 
		130.7253,152.3207 132.0972,153.1327 133.4692,152.5817 134.8412,152.9137 136.2122,152.5227 137.5842,152.3607 138.9562,152.3337 
		140.3272,152.0697 141.6992,151.7817 143.0713,151.9387 144.4422,152.6857 145.8142,152.6257 147.1862,152.1867 148.5573,152.5957 
		149.9292,152.1567 151.3012,152.4557 152.6722,152.9907 154.0443,152.9487 155.4162,152.5077 156.7882,152.9367 158.1592,152.8877 
		159.5312,153.1027 160.9032,152.7257 162.2742,152.6267 163.6462,153.1327 165.0182,153.0977 166.3893,152.8497 167.7612,153.0327 
		169.1332,152.6667 170.5042,152.9957 171.8763,152.8087 173.2482,153.1087 174.6192,153.0877 175.9912,153.1157 177.3633,152.6487 
		178.7352,153.0327 180.1062,152.8357 181.4782,153.5857 182.8503,152.9677 184.2213,153.1577 185.5933,153.0487 186.9652,152.0657 
		188.3362,153.1067 189.7083,153.0247 	"/>
	
		<polyline style="clip-path:url(#SVGID_00000153675096130847982640000008823390731442007479_);fill:none;stroke:#ED2224;stroke-width:1.5;stroke-linecap:square;stroke-linejoin:round;stroke-miterlimit:10;" points="
		53.9113,77.0167 55.2832,58.7287 56.6542,52.6147 58.0262,49.1637 59.3983,45.0327 60.7692,39.0817 62.1412,37.5137 
		63.5132,30.7517 64.8853,29.5237 66.2562,26.4717 67.6282,23.3997 69.0002,22.6017 70.3712,19.8647 71.7433,17.8227 
		73.1152,19.3567 74.4862,17.6647 75.8582,16.9587 77.2303,15.6717 78.6012,15.6857 79.9732,17.5337 81.3452,15.6097 
		82.7162,14.8837 84.0882,14.9967 85.4602,14.7787 86.8322,14.1317 88.2032,15.0137 89.5753,14.2157 90.9472,16.9797 
		92.3182,14.8317 93.6902,14.1247 95.0623,15.1287 96.4332,16.1877 97.8052,13.4587 99.1772,14.2947 100.5482,14.5167 
		101.9202,13.3357 103.2922,13.5007 104.6632,13.7407 106.0352,12.8717 107.4072,14.0717 108.7782,13.5157 110.1502,13.6467 
		111.5222,13.5667 112.8943,14.8877 114.2652,13.4067 115.6372,13.6917 117.0092,13.6327 118.3802,13.5197 119.7523,13.6317 
		121.1242,13.6507 122.4952,13.1687 123.8672,13.5067 125.2393,12.6517 126.6102,13.4347 127.9822,13.5267 129.3542,13.1947 
		130.7253,13.4077 132.0972,13.2647 133.4692,13.2267 134.8412,12.7687 136.2122,12.6397 137.5842,13.0437 138.9562,12.8647 
		140.3272,13.3927 141.6992,12.7747 143.0713,12.9727 144.4422,13.1877 145.8142,13.3357 147.1862,13.7507 148.5573,13.1427 
		149.9292,13.6977 151.3012,13.1297 152.6722,12.8717 154.0443,12.7777 155.4162,14.3377 156.7882,13.0767 158.1592,12.7547 
		159.5312,12.7817 160.9032,13.6217 162.2742,13.1697 163.6462,12.4027 165.0182,12.4967 166.3893,12.3447 167.7612,12.5077 
		169.1332,13.0347 170.5042,12.6217 171.8763,12.7297 173.2482,13.3047 174.6192,12.7957 175.9912,12.4377 177.3633,12.6107 
		178.7352,13.0037 180.1062,12.7957 181.4782,12.8787 182.8503,12.8497 184.2213,12.5107 185.5933,12.5917 186.9652,14.8107 
		188.3362,12.6107 189.7083,12.2787 	"/>
</g>
<line class="st6" x1="47.1215" y1="154.3372" x2="47.1215" y2="4.8492"/>
<line class="st6" x1="53.9113" y1="161.8116" x2="191.0803" y2="161.8116"/>
<polyline class="st7" points="80.9968,76.0779 90.9968,76.0779 100.9968,76.0779 "/>
<g>
	<path d="M112.437,72.8491v1.04c-0.332-0.3091-0.686-0.5405-1.062-0.6934s-0.7754-0.2295-1.1987-0.2295
		c-0.8335,0-1.4712,0.2549-1.9141,0.7642s-0.6641,1.2461-0.6641,2.2095c0,0.9604,0.2212,1.6953,0.6641,2.2046
		s1.0806,0.7642,1.9141,0.7642c0.4233,0,0.8228-0.0767,1.1987-0.2295s0.73-0.3843,1.062-0.6934v1.0303
		c-0.3452,0.2344-0.7104,0.4102-1.0962,0.5273s-0.7935,0.1758-1.2231,0.1758c-1.1035,0-1.9727-0.3379-2.6074-1.0132
		s-0.9521-1.5977-0.9521-2.7661c0-1.1719,0.3174-2.0957,0.9521-2.771s1.5039-1.0132,2.6074-1.0132
		c0.436,0,0.8472,0.0576,1.2329,0.1733S112.0986,72.6182,112.437,72.8491z"/>
	<path d="M116.0405,73.9771c0.7812,0,1.395,0.2539,1.8408,0.7617s0.6689,1.2109,0.6689,2.1094c0,0.895-0.2231,1.5977-0.6689,2.1069
		s-1.0596,0.7642-1.8408,0.7642c-0.7847,0-1.3989-0.2549-1.8433-0.7642s-0.6665-1.2119-0.6665-2.1069
		c0-0.8984,0.2222-1.6016,0.6665-2.1094S115.2559,73.9771,116.0405,73.9771z M116.0405,74.7388c-0.4819,0-0.8628,0.188-1.1426,0.564
		s-0.4199,0.8911-0.4199,1.5454s0.1392,1.1694,0.4175,1.5454s0.6602,0.564,1.145,0.564c0.4785,0,0.8579-0.189,1.1377-0.5664
		s0.4199-0.8921,0.4199-1.543c0-0.6479-0.1401-1.1611-0.4199-1.5405S116.519,74.7388,116.0405,74.7388z"/>
	<path d="M124.5854,76.2769v3.3008h-0.8984v-3.2715c0-0.5176-0.1011-0.9048-0.3027-1.1621s-0.5044-0.3857-0.9082-0.3857
		c-0.4849,0-0.8677,0.1548-1.1475,0.4639s-0.4199,0.731-0.4199,1.2646v3.0908h-0.9033v-5.4688h0.9033v0.8496
		c0.2148-0.3286,0.4678-0.5747,0.7593-0.7373s0.6274-0.2441,1.0083-0.2441c0.6284,0,1.1035,0.1943,1.4258,0.5835
		S124.5854,75.5215,124.5854,76.2769z"/>
	<path d="M127.2661,72.5562v1.5527h1.8506v0.6982h-1.8506v2.9688c0,0.4458,0.061,0.7324,0.1831,0.8594s0.3701,0.1904,0.7446,0.1904
		h0.9229v0.752h-0.9229c-0.6934,0-1.1719-0.1294-1.4355-0.3882s-0.3955-0.73-0.3955-1.4136v-2.9688h-0.6592v-0.6982h0.6592v-1.5527
		H127.2661z"/>
	<path d="M134.9761,76.6187v0.4395h-4.1309c0.0391,0.6187,0.2256,1.0898,0.5591,1.4136s0.7983,0.4858,1.394,0.4858
		c0.3452,0,0.6797-0.0425,1.0034-0.127s0.6455-0.2114,0.9644-0.3809v0.8496c-0.3223,0.1367-0.6528,0.2407-0.9912,0.3125
		s-0.6821,0.1074-1.0303,0.1074c-0.8726,0-1.5635-0.2539-2.0728-0.7617s-0.7642-1.1948-0.7642-2.0605
		c0-0.895,0.2417-1.6055,0.7251-2.1313s1.1353-0.7886,1.9556-0.7886c0.7358,0,1.3174,0.2368,1.7456,0.7104
		S134.9761,75.8047,134.9761,76.6187z M134.0776,76.355c-0.0063-0.4917-0.144-0.8838-0.4126-1.1768s-0.624-0.4395-1.0669-0.4395
		c-0.5015,0-0.9023,0.1416-1.2036,0.4248s-0.4746,0.6821-0.52,1.1963L134.0776,76.355z"/>
	<path d="M140.9966,76.2769v3.3008h-0.8984v-3.2715c0-0.5176-0.1011-0.9048-0.3027-1.1621s-0.5044-0.3857-0.9082-0.3857
		c-0.4849,0-0.8677,0.1548-1.1475,0.4639s-0.4199,0.731-0.4199,1.2646v3.0908h-0.9033v-5.4688h0.9033v0.8496
		c0.2148-0.3286,0.4678-0.5747,0.7593-0.7373s0.6274-0.2441,1.0083-0.2441c0.6284,0,1.1035,0.1943,1.4258,0.5835
		S140.9966,75.5215,140.9966,76.2769z"/>
	<path d="M143.6772,72.5562v1.5527h1.8506v0.6982h-1.8506v2.9688c0,0.4458,0.061,0.7324,0.1831,0.8594s0.3701,0.1904,0.7446,0.1904
		h0.9229v0.752h-0.9229c-0.6934,0-1.1719-0.1294-1.4355-0.3882s-0.3955-0.73-0.3955-1.4136v-2.9688h-0.6592v-0.6982h0.6592v-1.5527
		H143.6772z"/>
</g>
<polyline class="st8" points="80.9968,90.7497 90.9968,90.7497 100.9968,90.7497 "/>
<g>
	<path d="M111.3481,87.1987v0.9619c-0.3745-0.1792-0.7275-0.3125-1.0596-0.4004s-0.6528-0.1318-0.9619-0.1318
		c-0.5371,0-0.9512,0.104-1.2427,0.3125s-0.437,0.5044-0.437,0.8887c0,0.3223,0.0967,0.5654,0.2905,0.73
		s0.5605,0.2969,1.1011,0.3979l0.5957,0.1221c0.7358,0.1401,1.2783,0.3867,1.6284,0.7397s0.5249,0.8262,0.5249,1.4185
		c0,0.7061-0.2368,1.2422-0.7104,1.6064s-1.168,0.5469-2.0825,0.5469c-0.3452,0-0.7119-0.0391-1.1011-0.1172
		s-0.792-0.1934-1.2085-0.3467v-1.0156c0.4004,0.2246,0.7925,0.3936,1.1768,0.5078s0.7617,0.1709,1.1328,0.1709
		c0.563,0,0.9976-0.1104,1.3037-0.332c0.3062-0.2207,0.459-0.5371,0.459-0.9473c0-0.3579-0.1099-0.6382-0.3296-0.8398
		s-0.5801-0.353-1.0815-0.4541l-0.6006-0.1172c-0.7358-0.1465-1.2681-0.376-1.5967-0.6885s-0.4932-0.7471-0.4932-1.3037
		c0-0.6445,0.2271-1.1523,0.6812-1.5234s1.0801-0.5566,1.8774-0.5566c0.3418,0,0.6899,0.0308,1.0449,0.0928
		S110.9771,87.0752,111.3481,87.1987z"/>
	<path d="M114.1753,87.228v1.5527h1.8506v0.6982h-1.8506v2.9688c0,0.4453,0.061,0.7324,0.1831,0.8594s0.3701,0.1904,0.7446,0.1904
		h0.9229v0.752h-0.9229c-0.6934,0-1.1719-0.1289-1.4355-0.3887c-0.2637-0.2578-0.3955-0.7295-0.3955-1.4131V89.479h-0.6592v-0.6982
		h0.6592V87.228H114.1753z"/>
	<path d="M119.4829,94.7573c-0.2539,0.6514-0.5015,1.0762-0.7422,1.2744s-0.563,0.2979-0.9668,0.2979h-0.7178v-0.752h0.5273
		c0.2476,0,0.4395-0.0586,0.5762-0.1758s0.2881-0.3936,0.4541-0.8301l0.1611-0.4102l-2.2119-5.3809h0.9521l1.709,4.2773
		l1.709-4.2773h0.9521L119.4829,94.7573z"/>
	<path d="M123.1255,86.6519h0.8984v7.5977h-0.8984V86.6519z"/>
	<path d="M130.5815,91.2905V91.73h-4.1309c0.0391,0.6187,0.2256,1.0898,0.5591,1.4131c0.3335,0.3242,0.7983,0.4863,1.394,0.4863
		c0.3452,0,0.6797-0.042,1.0034-0.127s0.6455-0.2119,0.9644-0.3809v0.8496c-0.3223,0.1367-0.6528,0.2412-0.9912,0.3125
		s-0.6821,0.1074-1.0303,0.1074c-0.8726,0-1.5635-0.2539-2.0728-0.7617s-0.7642-1.1948-0.7642-2.0605
		c0-0.895,0.2417-1.6055,0.7251-2.1313s1.1353-0.7886,1.9556-0.7886c0.7358,0,1.3174,0.2368,1.7456,0.7104
		S130.5815,90.4766,130.5815,91.2905z M129.6831,91.0269c-0.0063-0.4917-0.144-0.8838-0.4126-1.1768s-0.624-0.4395-1.0669-0.4395
		c-0.5015,0-0.9023,0.1416-1.2036,0.4248s-0.4746,0.6821-0.52,1.1963L129.6831,91.0269z"/>
</g>
<path d="M90.9968,107.6195c0.351,0,0.687-0.139,0.935-0.387c0.249-0.249,0.388-0.585,0.388-0.936c0-0.351-0.139-0.687-0.388-0.935
	c-0.248-0.248-0.584-0.388-0.935-0.388c-0.351,0-0.687,0.14-0.935,0.388c-0.248,0.248-0.388,0.584-0.388,0.935
	c0,0.351,0.14,0.687,0.388,0.936C90.3098,107.4805,90.6458,107.6195,90.9968,107.6195"/>
<path class="st9" d="M90.9968,107.6195c0.351,0,0.687-0.139,0.935-0.387c0.249-0.249,0.388-0.585,0.388-0.936
	c0-0.351-0.139-0.687-0.388-0.935c-0.248-0.248-0.584-0.388-0.935-0.388c-0.351,0-0.687,0.14-0.935,0.388
	c-0.248,0.248-0.388,0.584-0.388,0.935c0,0.351,0.14,0.687,0.388,0.936C90.3098,107.4805,90.6458,107.6195,90.9968,107.6195z"/>
<g>
	<path d="M108.8579,101.6313h1.1182l2.7783,7.29h-1.0254l-0.6641-1.8701h-3.2861l-0.6641,1.8701h-1.04L108.8579,101.6313z
		 M109.4146,102.603l-1.3379,3.6279h2.6807L109.4146,102.603z"/>
	<path d="M118.3257,105.6206v3.3008h-0.8984v-3.2715c0-0.5176-0.1011-0.9053-0.3027-1.1621s-0.5044-0.3857-0.9082-0.3857
		c-0.4849,0-0.8677,0.1543-1.1475,0.4639s-0.4199,0.7305-0.4199,1.2646v3.0908h-0.9033v-5.4688h0.9033v0.8496
		c0.2148-0.3291,0.4678-0.5742,0.7593-0.7373s0.6274-0.2441,1.0083-0.2441c0.6284,0,1.1035,0.1943,1.4258,0.583
		C118.1646,104.2935,118.3257,104.8657,118.3257,105.6206z"/>
	<path d="M120.1567,101.6313h0.9863v7.29h-0.9863V101.6313z"/>
	<path d="M127.6128,105.6206v3.3008h-0.8984v-3.2715c0-0.5176-0.1011-0.9053-0.3027-1.1621s-0.5044-0.3857-0.9082-0.3857
		c-0.4849,0-0.8677,0.1543-1.1475,0.4639s-0.4199,0.7305-0.4199,1.2646v3.0908h-0.9033v-5.4688h0.9033v0.8496
		c0.2148-0.3291,0.4678-0.5742,0.7593-0.7373s0.6274-0.2441,1.0083-0.2441c0.6284,0,1.1035,0.1943,1.4258,0.583
		C127.4517,104.2935,127.6128,104.8657,127.6128,105.6206z"/>
	<path d="M132.1733,101.3237v0.7471h-0.8594c-0.3223,0-0.5459,0.0654-0.6714,0.1953s-0.188,0.3643-0.188,0.7031v0.4834h1.4795
		v0.6982h-1.4795v4.7705h-0.9033v-4.7705h-0.8594v-0.6982h0.8594v-0.3809c0-0.6084,0.1416-1.0527,0.4248-1.3301
		c0.2832-0.2793,0.7324-0.418,1.3477-0.418H132.1733z"/>
	<path d="M135.0444,103.3208c0.7812,0,1.395,0.2539,1.8408,0.7617s0.6689,1.2109,0.6689,2.1094
		c0,0.8955-0.2231,1.5977-0.6689,2.1064c-0.4458,0.5098-1.0596,0.7646-1.8408,0.7646c-0.7847,0-1.3989-0.2549-1.8433-0.7646
		c-0.4443-0.5088-0.6665-1.2109-0.6665-2.1064c0-0.8984,0.2222-1.6016,0.6665-2.1094S134.2598,103.3208,135.0444,103.3208z
		 M135.0444,104.0825c-0.4819,0-0.8628,0.1885-1.1426,0.5635c-0.2798,0.377-0.4199,0.8916-0.4199,1.5459
		s0.1392,1.1689,0.4175,1.5459c0.2783,0.375,0.6602,0.5635,1.145,0.5635c0.4785,0,0.8579-0.1885,1.1377-0.5664
		s0.4199-0.8916,0.4199-1.543c0-0.6475-0.1401-1.1611-0.4199-1.54C135.9023,104.272,135.5229,104.0825,135.0444,104.0825z"/>
	<path d="M139.0825,101.6313h1.3281l3.2324,6.0986v-6.0986h0.957v7.29h-1.3281l-3.2324-6.0986v6.0986h-0.957V101.6313z"/>
	<path d="M152.022,102.1929v1.04c-0.332-0.3096-0.686-0.54-1.062-0.6934s-0.7754-0.2295-1.1987-0.2295
		c-0.8335,0-1.4712,0.2549-1.9141,0.7637c-0.4429,0.5098-0.6641,1.2461-0.6641,2.21c0,0.96,0.2212,1.6953,0.6641,2.2041
		c0.4429,0.5098,1.0806,0.7646,1.9141,0.7646c0.4233,0,0.8228-0.0762,1.1987-0.2295s0.73-0.3838,1.062-0.6934v1.0303
		c-0.3452,0.2344-0.7104,0.4102-1.0962,0.5273s-0.7935,0.1758-1.2231,0.1758c-1.1035,0-1.9727-0.3379-2.6074-1.0127
		c-0.6348-0.6758-0.9521-1.5977-0.9521-2.7666c0-1.1719,0.3174-2.0957,0.9521-2.7705c0.6348-0.6758,1.5039-1.0137,2.6074-1.0137
		c0.436,0,0.8472,0.0576,1.2329,0.1738C151.3213,101.7886,151.6836,101.9614,152.022,102.1929z"/>
	<path d="M153.5454,101.6313h4.6094v0.8301h-3.623v2.1582h3.4717v0.8301h-3.4717v2.6416h3.7109v0.8301h-4.6973V101.6313z"/>
</g>
<path class="st10" d="M90.9968,122.2914c0.351,0,0.687-0.139,0.935-0.387c0.249-0.249,0.388-0.585,0.388-0.936
	c0-0.351-0.139-0.687-0.388-0.935c-0.248-0.248-0.584-0.388-0.935-0.388c-0.351,0-0.687,0.14-0.935,0.388
	c-0.248,0.248-0.388,0.584-0.388,0.935c0,0.351,0.14,0.687,0.388,0.936C90.3098,122.1524,90.6458,122.2914,90.9968,122.2914"/>
<path class="st11" d="M90.9968,122.2914c0.351,0,0.687-0.139,0.935-0.387c0.249-0.249,0.388-0.585,0.388-0.936
	c0-0.351-0.139-0.687-0.388-0.935c-0.248-0.248-0.584-0.388-0.935-0.388c-0.351,0-0.687,0.14-0.935,0.388
	c-0.248,0.248-0.388,0.584-0.388,0.935c0,0.351,0.14,0.687,0.388,0.936C90.3098,122.1524,90.6458,122.2914,90.9968,122.2914z"/>
<g>
	<path d="M106.978,116.3032h0.9863v7.29h-0.9863V116.3032z"/>
	<path d="M114.4341,120.2925v3.3008h-0.8984v-3.2715c0-0.5176-0.1011-0.9053-0.3027-1.1621s-0.5044-0.3857-0.9082-0.3857
		c-0.4849,0-0.8677,0.1543-1.1475,0.4639s-0.4199,0.7305-0.4199,1.2646v3.0908h-0.9033v-5.4688h0.9033v0.8496
		c0.2148-0.3291,0.4678-0.5742,0.7593-0.7373s0.6274-0.2441,1.0083-0.2441c0.6284,0,1.1035,0.1943,1.4258,0.583
		C114.2729,118.9653,114.4341,119.5376,114.4341,120.2925z"/>
	<path d="M118.9946,115.9956v0.7471h-0.8594c-0.3223,0-0.5459,0.0654-0.6714,0.1953s-0.188,0.3643-0.188,0.7031v0.4834h1.4795
		v0.6982h-1.4795v4.7705h-0.9033v-4.7705h-0.8594v-0.6982h0.8594v-0.3809c0-0.6084,0.1416-1.0527,0.4248-1.3301
		c0.2832-0.2793,0.7324-0.418,1.3477-0.418H118.9946z"/>
	<path d="M121.8657,117.9927c0.7812,0,1.395,0.2539,1.8408,0.7617s0.6689,1.2109,0.6689,2.1094
		c0,0.8955-0.2231,1.5977-0.6689,2.1064c-0.4458,0.5098-1.0596,0.7646-1.8408,0.7646c-0.7847,0-1.3989-0.2549-1.8433-0.7646
		c-0.4443-0.5088-0.6665-1.2109-0.6665-2.1064c0-0.8984,0.2222-1.6016,0.6665-2.1094S121.0811,117.9927,121.8657,117.9927z
		 M121.8657,118.7544c-0.4819,0-0.8628,0.1885-1.1426,0.5635c-0.2798,0.377-0.4199,0.8916-0.4199,1.5459
		s0.1392,1.1689,0.4175,1.5459c0.2783,0.375,0.6602,0.5635,1.145,0.5635c0.4785,0,0.8579-0.1885,1.1377-0.5664
		s0.4199-0.8916,0.4199-1.543c0-0.6475-0.1401-1.1611-0.4199-1.54C122.7236,118.9438,122.3442,118.7544,121.8657,118.7544z"/>
	<path d="M125.9038,116.3032h1.3281l3.2324,6.0986v-6.0986h0.957v7.29h-1.3281l-3.2324-6.0986v6.0986h-0.957V116.3032z"/>
	<path d="M138.8433,116.8647v1.04c-0.332-0.3096-0.686-0.54-1.062-0.6934s-0.7754-0.2295-1.1987-0.2295
		c-0.8335,0-1.4712,0.2549-1.9141,0.7637c-0.4429,0.5098-0.6641,1.2461-0.6641,2.21c0,0.96,0.2212,1.6953,0.6641,2.2041
		c0.4429,0.5098,1.0806,0.7646,1.9141,0.7646c0.4233,0,0.8228-0.0762,1.1987-0.2295s0.73-0.3838,1.062-0.6934v1.0303
		c-0.3452,0.2344-0.7104,0.4102-1.0962,0.5273s-0.7935,0.1758-1.2231,0.1758c-1.1035,0-1.9727-0.3379-2.6074-1.0127
		c-0.6348-0.6758-0.9521-1.5977-0.9521-2.7666c0-1.1719,0.3174-2.0957,0.9521-2.7705c0.6348-0.6758,1.5039-1.0137,2.6074-1.0137
		c0.436,0,0.8472,0.0576,1.2329,0.1738C138.1426,116.4604,138.5049,116.6333,138.8433,116.8647z"/>
	<path d="M140.3667,116.3032h4.6094v0.8301h-3.623v2.1582h3.4717v0.8301h-3.4717v2.6416h3.7109v0.8301h-4.6973V116.3032z"/>
</g>
<g>
</g>
<g>
</g>
<g>
</g>
<g>
</g>
<g>
</g>
<g>
</g>
</svg>
